REM DIRINDEX 1\6,1\2\7,1\2\8,1\2\9,1\3\10,1\3\11,1\4\12,1\4\13,1\4\14,1\5\15,1\5\16,1\5\17
REM DIRNAME folder01,folder02,folder03,folder04,folder05,folder06,folder07,folder08,folder09,folder10,folder11,folder12,folder13,folder14,folder15,folder16,folder17
TITLE ""
FILE "P2Q_t_0445-0462.mp3" MP3
  TRACK 01 AUDIO
    TITLE "10:cjc040_2541"
    INDEX 01 00:00:00
  TRACK 02 AUDIO
    TITLE "0:"
    INDEX 01 00:00:70
  TRACK 03 AUDIO
    TITLE "11:cjc040_2542"
    INDEX 01 00:01:46
  TRACK 04 AUDIO
    TITLE "0:"
    INDEX 01 00:02:53
  TRACK 05 AUDIO
    TITLE "10:cjc040_2543"
    INDEX 01 00:03:31
  TRACK 06 AUDIO
    TITLE "0:"
    INDEX 01 00:04:33
  TRACK 07 AUDIO
    TITLE "11:cjc040_2544"
    INDEX 01 00:05:12
  TRACK 08 AUDIO
    TITLE "0:"
    INDEX 01 00:08:09
  TRACK 09 AUDIO
    TITLE "10:cjc040_2545"
    INDEX 01 00:08:62
  TRACK 10 AUDIO
    TITLE "0:"
    INDEX 01 00:09:69
  TRACK 11 AUDIO
    TITLE "11:cjc040_2546"
    INDEX 01 00:10:47
  TRACK 12 AUDIO
    TITLE "0:"
    INDEX 01 00:13:39
  TRACK 13 AUDIO
    TITLE "10:cjc040_2547"
    INDEX 01 00:14:15
  TRACK 14 AUDIO
    TITLE "0:"
    INDEX 01 00:15:30
  TRACK 15 AUDIO
    TITLE "11:cjc040_2548"
    INDEX 01 00:16:12
  TRACK 16 AUDIO
    TITLE "0:"
    INDEX 01 00:17:59
  TRACK 17 AUDIO
    TITLE "10:cjc040_2549"
    INDEX 01 00:18:39
  TRACK 18 AUDIO
    TITLE "0:"
    INDEX 01 00:19:44
  TRACK 19 AUDIO
    TITLE "11:cjc040_2550"
    INDEX 01 00:20:22
  TRACK 20 AUDIO
    TITLE "0:"
    INDEX 01 00:21:29
  TRACK 21 AUDIO
    TITLE "10:cjc040_2551"
    INDEX 01 00:22:11
  TRACK 22 AUDIO
    TITLE "0:"
    INDEX 01 00:23:14
  TRACK 23 AUDIO
    TITLE "11:cjc040_2552"
    INDEX 01 00:23:71
  TRACK 24 AUDIO
    TITLE "0:"
    INDEX 01 00:25:05
  TRACK 25 AUDIO
    TITLE "10:cjc040_2553"
    INDEX 01 00:25:66
  TRACK 26 AUDIO
    TITLE "0:"
    INDEX 01 00:27:16
  TRACK 27 AUDIO
    TITLE "11:cjc040_2554"
    INDEX 01 00:27:69
  TRACK 28 AUDIO
    TITLE "0:"
    INDEX 01 00:29:66
  TRACK 29 AUDIO
    TITLE "10:cjc040_2555"
    INDEX 01 00:30:42
  TRACK 30 AUDIO
    TITLE "0:"
    INDEX 01 00:31:69
  TRACK 31 AUDIO
    TITLE "11:cjc040_2556"
    INDEX 01 00:32:45
  TRACK 32 AUDIO
    TITLE "0:"
    INDEX 01 00:34:67
  TRACK 33 AUDIO
    TITLE "10:cjc040_2557"
    INDEX 01 00:35:51
  TRACK 34 AUDIO
    TITLE "0:"
    INDEX 01 00:36:72
  TRACK 35 AUDIO
    TITLE "11:cjc040_2558"
    INDEX 01 00:37:52
  TRACK 36 AUDIO
    TITLE "0:"
    INDEX 01 00:40:60
  TRACK 37 AUDIO
    TITLE "10:cjc040_2559"
    INDEX 01 00:41:36
  TRACK 38 AUDIO
    TITLE "0:"
    INDEX 01 00:42:59
  TRACK 39 AUDIO
    TITLE "11:cjc040_2560"
    INDEX 01 00:43:39
  TRACK 40 AUDIO
    TITLE "0:"
    INDEX 01 00:46:35
  TRACK 41 AUDIO
    TITLE "10:cjc040_2561"
    INDEX 01 00:47:13
  TRACK 42 AUDIO
    TITLE "0:"
    INDEX 01 00:48:38
  TRACK 43 AUDIO
    TITLE "11:cjc040_2562"
    INDEX 01 00:49:14
  TRACK 44 AUDIO
    TITLE "0:"
    INDEX 01 00:50:44
  TRACK 45 AUDIO
    TITLE "10:cjc040_2563"
    INDEX 01 00:51:16
  TRACK 46 AUDIO
    TITLE "0:"
    INDEX 01 00:52:43
  TRACK 47 AUDIO
    TITLE "11:cjc040_2564"
    INDEX 01 00:53:23
  TRACK 48 AUDIO
    TITLE "0:"
    INDEX 01 00:54:74
  TRACK 49 AUDIO
    TITLE "10:cjc040_2565"
    INDEX 01 00:55:50
  TRACK 50 AUDIO
    TITLE "0:"
    INDEX 01 00:56:67
  TRACK 51 AUDIO
    TITLE "11:cjc040_2566"
    INDEX 01 00:57:52
  TRACK 52 AUDIO
    TITLE "0:"
    INDEX 01 00:58:69
  TRACK 53 AUDIO
    TITLE "10:cjc040_2567"
    INDEX 01 00:59:45
  TRACK 54 AUDIO
    TITLE "0:"
    INDEX 01 01:00:49
  TRACK 55 AUDIO
    TITLE "11:cjc040_2568"
    INDEX 01 01:01:31
  TRACK 56 AUDIO
    TITLE "0:"
    INDEX 01 01:03:41
  TRACK 57 AUDIO
    TITLE "10:cjc040_2569"
    INDEX 01 01:04:21
  TRACK 58 AUDIO
    TITLE "0:"
    INDEX 01 01:05:48
  TRACK 59 AUDIO
    TITLE "11:cjc040_2570"
    INDEX 01 01:06:28
  TRACK 60 AUDIO
    TITLE "0:"
    INDEX 01 01:08:25
  TRACK 61 AUDIO
    TITLE "10:cjc040_2571"
    INDEX 01 01:09:07
  TRACK 62 AUDIO
    TITLE "0:"
    INDEX 01 01:10:08
  TRACK 63 AUDIO
    TITLE "11:cjc040_2572"
    INDEX 01 01:10:63
  TRACK 64 AUDIO
    TITLE "0:"
    INDEX 01 01:14:00
  TRACK 65 AUDIO
    TITLE "10:cjc040_2573"
    INDEX 01 01:14:53
  TRACK 66 AUDIO
    TITLE "0:"
    INDEX 01 01:15:70
  TRACK 67 AUDIO
    TITLE "11:cjc040_2574"
    INDEX 01 01:16:46
  TRACK 68 AUDIO
    TITLE "0:"
    INDEX 01 01:18:21
  TRACK 69 AUDIO
    TITLE "10:cjc040_2575"
    INDEX 01 01:18:72
  TRACK 70 AUDIO
    TITLE "0:"
    INDEX 01 01:20:18
  TRACK 71 AUDIO
    TITLE "11:cjc040_2576"
    INDEX 01 01:20:71
  TRACK 72 AUDIO
    TITLE "0:"
    INDEX 01 01:24:06
